# xmcd
#
# Track frame offsets:
#	150
#	3046
#	33865
#	62193
#	91495
#	121648
#	166129
#	191607
#
# Disc length: 3177 seconds
#
# Revision: 2
# Processed by: cddbd v1.5.1PL2 Copyright (c) Steve Scherf et al.
# Submitted via: EasyCDDAExtractor 8.0.2.1
#
DISCID=540c6708
DTITLE=Wishbone Ash - Hammersmith Odeon London 25-10-78 Disc 1
DYEAR=1978
DGENRE=Hard Rock
TTITLE0=Intro
TTITLE1=The King Will Come
TTITLE2=Warrior
TTITLE3=Errors Of My Way
TTITLE4=You See Red
TTITLE5=Fubb
TTITLE6=Front Page News
TTITLE7=The Way Of The World - Outro
EXTD=
EXTT0=
EXTT1=
EXTT2=
EXTT3=
EXTT4=
EXTT5=
EXTT6=
EXTT7=
PLAYORDER=
